<svg width="49" height="59" viewBox="0 0 49 59" fill="none" xmlns="http://www.w3.org/2000/svg">
<circle cx="25.1958" cy="12.9681" r="4.90922" stroke="white" stroke-width="2"/>
<path d="M32.4058 23.5362C33.8426 24.973 34.8063 26.7945 35.1967 28.7586C35.412 29.842 34.4967 30.7459 33.3922 30.7459H25.1961L17 30.7459C15.8954 30.7459 14.9802 29.842 15.1955 28.7586C15.5858 26.7945 16.5495 24.973 17.9864 23.5362C19.8985 21.624 22.4919 20.5498 25.1961 20.5498C27.9002 20.5498 30.4937 21.624 32.4058 23.5362Z" stroke="white" stroke-width="2"/>
<circle cx="25" cy="21" r="20" stroke="white" stroke-width="2"/>
<path d="M0.891 56V48.19H7.062V56H5.819V49.279H2.123V56H0.891ZM11.9422 56.11C11.4802 56.11 11.0732 56 10.7212 55.78C10.3692 55.56 10.0906 55.274 9.88522 54.922V58.343H8.67522V50.247H9.74222V51.281C9.96222 50.9363 10.2482 50.6613 10.6002 50.456C10.9522 50.2507 11.3446 50.148 11.7772 50.148C12.1732 50.148 12.5362 50.2287 12.8662 50.39C13.1962 50.544 13.4822 50.7603 13.7242 51.039C13.9662 51.3177 14.1532 51.6367 14.2852 51.996C14.4246 52.348 14.4942 52.722 14.4942 53.118C14.4942 53.668 14.3842 54.1703 14.1642 54.625C13.9516 55.0797 13.6509 55.4427 13.2622 55.714C12.8809 55.978 12.4409 56.11 11.9422 56.11ZM11.5462 55.076C11.8029 55.076 12.0339 55.021 12.2392 54.911C12.4519 54.801 12.6316 54.6543 12.7782 54.471C12.9322 54.2877 13.0496 54.0787 13.1302 53.844C13.2109 53.6093 13.2512 53.3673 13.2512 53.118C13.2512 52.854 13.2072 52.6047 13.1192 52.37C13.0312 52.1353 12.9029 51.93 12.7342 51.754C12.5729 51.578 12.3822 51.4387 12.1622 51.336C11.9496 51.2333 11.7149 51.182 11.4582 51.182C11.3042 51.182 11.1429 51.2113 10.9742 51.27C10.8056 51.3287 10.6479 51.4093 10.5012 51.512C10.3546 51.6147 10.2262 51.7357 10.1162 51.875C10.0062 52.0143 9.92922 52.161 9.88522 52.315V53.822C9.98789 54.0567 10.1236 54.2693 10.2922 54.46C10.4609 54.6433 10.6552 54.7937 10.8752 54.911C11.0952 55.021 11.3189 55.076 11.5462 55.076ZM18.1674 56.11C17.7128 56.11 17.3058 56.033 16.9464 55.879C16.5871 55.7177 16.2754 55.4977 16.0114 55.219C15.7548 54.9403 15.5568 54.625 15.4174 54.273C15.2781 53.9137 15.2084 53.5323 15.2084 53.129C15.2084 52.7257 15.2781 52.3443 15.4174 51.985C15.5568 51.6257 15.7548 51.3103 16.0114 51.039C16.2754 50.7603 16.5871 50.544 16.9464 50.39C17.3131 50.2287 17.7201 50.148 18.1674 50.148C18.6148 50.148 19.0181 50.2287 19.3774 50.39C19.7441 50.544 20.0558 50.7603 20.3124 51.039C20.5764 51.3103 20.7781 51.6257 20.9174 51.985C21.0568 52.3443 21.1264 52.7257 21.1264 53.129C21.1264 53.5323 21.0568 53.9137 20.9174 54.273C20.7781 54.625 20.5764 54.9403 20.3124 55.219C20.0558 55.4977 19.7441 55.7177 19.3774 55.879C19.0181 56.033 18.6148 56.11 18.1674 56.11ZM16.4514 53.14C16.4514 53.5067 16.5284 53.8367 16.6824 54.13C16.8364 54.4233 17.0418 54.6543 17.2984 54.823C17.5551 54.9917 17.8448 55.076 18.1674 55.076C18.4828 55.076 18.7688 54.9917 19.0254 54.823C19.2894 54.647 19.4984 54.4123 19.6524 54.119C19.8064 53.8183 19.8834 53.4883 19.8834 53.129C19.8834 52.7623 19.8064 52.4323 19.6524 52.139C19.4984 51.8457 19.2894 51.6147 19.0254 51.446C18.7688 51.27 18.4828 51.182 18.1674 51.182C17.8448 51.182 17.5551 51.27 17.2984 51.446C17.0418 51.622 16.8364 51.8567 16.6824 52.15C16.5284 52.436 16.4514 52.766 16.4514 53.14ZM24.8726 58.343V56H24.6746C24.0806 56 23.571 55.868 23.1456 55.604C22.7203 55.34 22.394 54.9917 22.1666 54.559C21.9393 54.119 21.8256 53.6423 21.8256 53.129C21.8256 52.6157 21.9393 52.1427 22.1666 51.71C22.4013 51.27 22.7313 50.918 23.1566 50.654C23.582 50.39 24.088 50.258 24.6746 50.258H24.8726V47.97H26.0826V50.258H26.2806C26.8673 50.258 27.3733 50.39 27.7986 50.654C28.224 50.918 28.5503 51.27 28.7776 51.71C29.0123 52.1427 29.1296 52.6157 29.1296 53.129C29.1296 53.6423 29.016 54.119 28.7886 54.559C28.5613 54.9917 28.235 55.34 27.8096 55.604C27.3843 55.868 26.8746 56 26.2806 56H26.0826V58.343H24.8726ZM24.6746 55.021H24.9276V51.237H24.6746C24.352 51.237 24.066 51.3213 23.8166 51.49C23.5673 51.6587 23.3693 51.886 23.2226 52.172C23.0833 52.458 23.0136 52.7807 23.0136 53.14C23.0136 53.4993 23.0833 53.822 23.2226 54.108C23.362 54.394 23.5563 54.6177 23.8056 54.779C24.055 54.9403 24.3446 55.021 24.6746 55.021ZM26.0166 55.021H26.2806C26.6106 55.021 26.9003 54.9403 27.1496 54.779C27.399 54.6177 27.5933 54.394 27.7326 54.108C27.8793 53.822 27.9526 53.4993 27.9526 53.14C27.9526 52.7807 27.8793 52.458 27.7326 52.172C27.5933 51.886 27.399 51.6587 27.1496 51.49C26.9003 51.3213 26.6106 51.237 26.2806 51.237H26.0166V55.021ZM30.2026 56V50.258H31.4126V54.383L34.3276 50.247H35.4276V56H34.2176V51.963L31.3356 56H30.2026ZM36.4115 56.055V54.977C36.5948 54.977 36.7598 54.933 36.9065 54.845C37.0531 54.7497 37.1815 54.5957 37.2915 54.383C37.4015 54.163 37.4895 53.8587 37.5555 53.47C37.6215 53.0813 37.6655 52.5863 37.6875 51.985L37.7645 50.247H41.8675V56H40.6575V51.314H38.8315L38.8095 52.095C38.7801 52.865 38.7105 53.5067 38.6005 54.02C38.4905 54.526 38.3365 54.9293 38.1385 55.23C37.9478 55.5233 37.7058 55.736 37.4125 55.868C37.1265 55.9927 36.7928 56.055 36.4115 56.055ZM43.3188 56V50.247H44.5288V52.139H45.9038C46.5858 52.139 47.1028 52.3113 47.4548 52.656C47.8141 53.0007 47.9938 53.4553 47.9938 54.02C47.9938 54.4013 47.9168 54.7423 47.7628 55.043C47.6088 55.3437 47.3814 55.5783 47.0808 55.747C46.7874 55.9157 46.4208 56 45.9808 56H43.3188ZM44.5288 55.065H45.7938C46.0358 55.065 46.2301 55.021 46.3768 54.933C46.5234 54.8377 46.6334 54.713 46.7068 54.559C46.7801 54.3977 46.8168 54.2253 46.8168 54.042C46.8168 53.8587 46.7838 53.6937 46.7178 53.547C46.6518 53.393 46.5418 53.272 46.3878 53.184C46.2411 53.0887 46.0394 53.041 45.7828 53.041H44.5288V55.065Z" fill="white"/>
</svg>
